<svg width="26" height="26" viewBox="0 0 26 26" fill="none" xmlns="http://www.w3.org/2000/svg">
<path d="M25.5322 7.52712C25.4722 6.16678 25.2522 5.23155 24.9371 4.42117C24.612 3.56096 24.1119 2.79083 23.4566 2.15061C22.8164 1.50042 22.0412 0.995202 21.1909 0.67519C20.3759 0.360062 19.4455 0.140078 18.0852 0.0801007C16.7147 0.0150433 16.2796 0 12.8036 0C9.32763 0 8.89254 0.0150433 7.52712 0.0750211C6.16678 0.134999 5.23155 0.355178 4.42136 0.670111C3.56096 0.995202 2.79083 1.49534 2.15061 2.15061C1.50042 2.79083 0.995398 3.56604 0.67519 4.41628C0.360062 5.23155 0.140078 6.1617 0.0801007 7.52204C0.0150433 8.89254 0 9.32763 0 12.8036C0 16.2796 0.0150433 16.7147 0.0750211 18.0801C0.134999 19.4404 0.355178 20.3757 0.670306 21.186C0.995398 22.0462 1.50042 22.8164 2.15061 23.4566C2.79083 24.1068 3.56604 24.612 4.41628 24.932C5.23155 25.2472 6.1617 25.4671 7.52224 25.5271C8.88746 25.5873 9.32274 25.6021 12.7987 25.6021C16.2747 25.6021 16.7098 25.5873 18.0752 25.5271C19.4356 25.4671 20.3708 25.2472 21.181 24.932C22.9016 24.2668 24.2619 22.9065 24.9271 21.186C25.2421 20.3708 25.4622 19.4404 25.5222 18.0801C25.5822 16.7147 25.5972 16.2796 25.5972 12.8036C25.5972 9.32763 25.5922 8.89254 25.5322 7.52712ZM23.2267 17.9801C23.1716 19.2304 22.9615 19.9056 22.7865 20.3557C22.3563 21.4711 21.4711 22.3563 20.3557 22.7865C19.9056 22.9615 19.2255 23.1716 17.9801 23.2265C16.6297 23.2866 16.2247 23.3015 12.8087 23.3015C9.39268 23.3015 8.98261 23.2866 7.63711 23.2265C6.38676 23.1716 5.71157 22.9615 5.26144 22.7865C4.7064 22.5814 4.20118 22.2563 3.79111 21.8311C3.36599 21.416 3.0409 20.9159 2.83576 20.3608C2.66071 19.9107 2.45069 19.2304 2.39579 17.9851C2.33562 16.6348 2.32077 16.2296 2.32077 12.8136C2.32077 9.39757 2.33562 8.98749 2.39579 7.64219C2.45069 6.39184 2.66071 5.71665 2.83576 5.26652C3.0409 4.71129 3.36599 4.20626 3.79619 3.79599C4.21115 3.37087 4.71129 3.04578 5.26652 2.84084C5.71665 2.66579 6.39692 2.45577 7.64219 2.40068C8.99257 2.3407 9.39776 2.32565 12.8136 2.32565C16.2346 2.32565 16.6396 2.3407 17.9851 2.40068C19.2355 2.45577 19.9107 2.66579 20.3608 2.84084C20.9159 3.04578 21.4211 3.37087 21.8311 3.79599C22.2563 4.21115 22.5814 4.71129 22.7865 5.26652C22.9615 5.71665 23.1716 6.39672 23.2267 7.64219C23.2866 8.99257 23.3017 9.39757 23.3017 12.8136C23.3017 16.2296 23.2866 16.6297 23.2267 17.9801Z" fill="#060606"/>
<path d="M12.8036 6.22681C9.1727 6.22681 6.22675 9.17256 6.22675 12.8037C6.22675 16.4348 9.1727 19.3805 12.8036 19.3805C16.4347 19.3805 19.3805 16.4348 19.3805 12.8037C19.3805 9.17256 16.4347 6.22681 12.8036 6.22681ZM12.8036 17.0699C10.4481 17.0699 8.53737 15.1594 8.53737 12.8037C8.53737 10.4479 10.4481 8.53742 12.8036 8.53742C15.1593 8.53742 17.0698 10.4479 17.0698 12.8037C17.0698 15.1594 15.1593 17.0699 12.8036 17.0699Z" fill="#060606"/>
<path d="M21.1761 5.96655C21.1761 6.81444 20.4886 7.50194 19.6405 7.50194C18.7926 7.50194 18.1051 6.81444 18.1051 5.96655C18.1051 5.11846 18.7926 4.43115 19.6405 4.43115C20.4886 4.43115 21.1761 5.11846 21.1761 5.96655Z" fill="#060606"/>
</svg>
