<svg width="19" height="19" viewBox="0 0 19 19" fill="none" xmlns="http://www.w3.org/2000/svg">
<path d="M18.5689 5.47427C18.5252 4.48493 18.3653 3.80476 18.1361 3.21539C17.8996 2.58979 17.5359 2.02969 17.0593 1.56408C16.5937 1.09122 16.0299 0.723783 15.4116 0.491047C14.8188 0.261864 14.1422 0.101875 13.1529 0.058255C12.1561 0.0109406 11.8397 0 9.31171 0C6.78373 0 6.4673 0.0109406 5.47427 0.0545608C4.48493 0.0981811 3.80476 0.258311 3.21554 0.487353C2.58979 0.723783 2.02969 1.08752 1.56408 1.56408C1.09122 2.02969 0.723925 2.59349 0.491047 3.21184C0.261864 3.80477 0.101875 4.48123 0.058255 5.47058C0.0109406 6.4673 0 6.78373 0 9.31171C0 11.8397 0.0109406 12.1561 0.0545608 13.1492C0.0981811 14.1385 0.258311 14.8187 0.487495 15.408C0.723925 16.0336 1.09122 16.5937 1.56408 17.0594C2.02969 17.5322 2.59349 17.8996 3.21184 18.1324C3.80476 18.3616 4.48123 18.5216 5.47072 18.5652C6.46361 18.6089 6.78018 18.6197 9.30816 18.6197C11.8361 18.6197 12.1526 18.6089 13.1456 18.5652C14.1349 18.5216 14.8151 18.3616 15.4043 18.1324C16.6557 17.6486 17.645 16.6592 18.1288 15.408C18.3579 14.8151 18.518 14.1385 18.5616 13.1492C18.6052 12.1561 18.6162 11.8397 18.6162 9.31171C18.6162 6.78373 18.6125 6.4673 18.5689 5.47427ZM16.8921 13.0764C16.852 13.9858 16.6993 14.4768 16.572 14.8042C16.2591 15.6153 15.6153 16.2591 14.8042 16.572C14.4768 16.6993 13.9822 16.852 13.0764 16.892C12.0943 16.9357 11.7998 16.9465 9.31541 16.9465C6.83104 16.9465 6.53281 16.9357 5.55426 16.892C4.64492 16.852 4.15387 16.6993 3.8265 16.572C3.42284 16.4228 3.05541 16.1864 2.75717 15.8772C2.44799 15.5753 2.21156 15.2115 2.06237 14.8079C1.93506 14.4805 1.78232 13.9858 1.74239 13.0801C1.69863 12.098 1.68783 11.8033 1.68783 9.31896C1.68783 6.8346 1.69863 6.53636 1.74239 5.55796C1.78232 4.64861 1.93506 4.15756 2.06237 3.8302C2.21156 3.42639 2.44799 3.0591 2.76086 2.76072C3.06265 2.45154 3.42639 2.21511 3.8302 2.06606C4.15756 1.93876 4.6523 1.78601 5.55796 1.74595C6.54005 1.70233 6.83474 1.69139 9.31896 1.69139C11.807 1.69139 12.1016 1.70233 13.0801 1.74595C13.9895 1.78601 14.4805 1.93876 14.8079 2.06606C15.2115 2.21511 15.579 2.45154 15.8772 2.76072C16.1864 3.06265 16.4228 3.42639 16.572 3.8302C16.6993 4.15756 16.852 4.65216 16.8921 5.55796C16.9357 6.54005 16.9467 6.8346 16.9467 9.31896C16.9467 11.8033 16.9357 12.0943 16.8921 13.0764Z" fill="#0057FF"/>
<path d="M9.31149 4.52844C6.67083 4.52844 4.52832 6.67081 4.52832 9.31161C4.52832 11.9524 6.67083 14.0948 9.31149 14.0948C11.9523 14.0948 14.0947 11.9524 14.0947 9.31161C14.0947 6.67081 11.9523 4.52844 9.31149 4.52844ZM9.31149 12.4143C7.59836 12.4143 6.20877 11.0249 6.20877 9.31161C6.20877 7.59834 7.59836 6.20889 9.31149 6.20889C11.0248 6.20889 12.4142 7.59834 12.4142 9.31161C12.4142 11.0249 11.0248 12.4143 9.31149 12.4143V12.4143Z" fill="#0057FF"/>
<path d="M15.4007 4.33943C15.4007 4.95608 14.9007 5.45608 14.2839 5.45608C13.6672 5.45608 13.1672 4.95608 13.1672 4.33943C13.1672 3.72264 13.6672 3.22278 14.2839 3.22278C14.9007 3.22278 15.4007 3.72264 15.4007 4.33943V4.33943Z" fill="#0057FF"/>
</svg>
