<svg width="76" height="94" viewBox="0 0 76 94" fill="none" xmlns="http://www.w3.org/2000/svg">
<path d="M57.8902 46.1029C61.142 48.5645 63.8507 51.6998 65.8392 55.2317C57.4013 53.5174 38.3122 52.6471 21.7792 63.8754C21.7792 63.8754 53.3439 54.2746 75.7291 64.0966L74.0638 59.5797L74.0704 59.5781C71.9408 52.3996 67.4635 45.9423 61.4586 41.3975C58.0493 38.8179 54.2774 36.9053 50.2759 35.7056C49.9067 35.3139 49.4605 34.5698 49.3407 33.1997C49.129 30.7659 49.7016 28.8614 49.6787 27.2127C49.659 25.5623 49.0421 26.1326 49.0847 24.2298C49.0847 24.2298 49.1274 22.4516 47.1586 21.247C45.1898 20.0407 43.9823 19.8932 43.9823 19.8932C43.9823 19.8932 45.8248 13.0589 45.9314 12.4247C46.568 12.4886 49.1307 13.4408 50.7189 13.4621C52.307 13.4818 53.2192 13.2704 53.7688 13.1868C55.9066 13.7374 57.7294 13.9063 60.8007 13.272C61.9869 13.018 64.5299 12.9344 64.5299 12.9344C64.5299 12.9344 64.6366 13.4211 65.9065 13.3785C67.1763 13.3359 68.9368 13.0409 69.9113 13.018C70.8859 12.9983 70.9499 12.7639 70.8662 12.7426C70.7809 12.723 66.6727 11.8117 60.3381 11.1758C56.7155 10.7087 53.4965 10.8579 52.3316 10.6464C51.1668 10.435 50.0019 10.0532 50.0019 10.0532C50.0019 10.0532 49.5786 8.95343 47.7345 8.67809C45.8707 8.48798 44.5155 8.5519 44.5155 8.5519C44.5155 8.5519 43.8002 7.93238 41.9216 7.17848L42.2268 5.61003C42.2268 5.61003 42.5451 4.99707 42.6944 4.65618C42.8437 4.31856 42.8863 3.70233 42.4614 3.89408C42.3744 3.93341 42.3154 3.96128 42.276 3.98094C42.3039 3.73838 42.463 2.29449 42.2497 1.50289C42.0201 0.647374 40.865 0.0196671 40.0201 0.00163892V0H39.8117V0.00163892C38.9684 0.021306 37.815 0.647374 37.5853 1.50289C37.3737 2.29449 37.5296 3.73838 37.5591 3.98094C37.5197 3.96128 37.4607 3.93177 37.3737 3.89408C36.9504 3.70233 36.9931 4.31692 37.1407 4.65618C37.29 4.9938 37.6083 5.61003 37.6083 5.61003L37.9135 7.17848C36.0366 7.93238 35.3196 8.5519 35.3196 8.5519C35.3196 8.5519 33.9644 8.48798 32.1006 8.67809C30.2581 8.95343 29.8332 10.0532 29.8332 10.0532C29.8332 10.0532 28.67 10.4334 27.5035 10.6464C26.3386 10.8579 23.118 10.7104 19.497 11.1758C13.1641 11.8117 9.05422 12.7197 8.96891 12.7426C8.88359 12.7623 8.94922 12.9967 9.92377 13.018C10.8983 13.0376 12.6555 13.3359 13.9286 13.3785C15.1985 13.4211 15.3051 12.9344 15.3051 12.9344C15.3051 12.9344 17.8482 13.0196 19.0344 13.272C22.104 13.9079 23.9268 13.7391 26.0663 13.1868C26.6175 13.272 27.5281 13.4818 29.1162 13.4621C30.7044 13.4424 33.2671 12.4886 33.9037 12.4247C34.0103 13.0606 35.8528 19.8932 35.8528 19.8932C35.8528 19.8932 34.6453 20.0424 32.6765 21.247C30.7077 22.4532 30.7503 24.2298 30.7503 24.2298C30.793 26.1343 30.1778 25.5639 30.1564 27.2127C30.1367 28.8614 30.7077 30.7659 30.4944 33.1997C30.3664 34.6763 29.8562 35.4237 29.4755 35.7875C17.3724 39.5095 8.52757 48.2499 5.70563 64.3179C5.70563 64.3179 16.1517 40.1208 40.0447 40.1208C46.5499 40.1192 52.7205 42.1875 57.8902 46.1029ZM32.2269 34.0666C31.9726 32.7326 32.2696 31.2084 33.0752 29.9398C33.8807 28.6713 33.5428 26.426 33.5428 26.426L33.7544 26.3834C33.7544 26.3834 34.9619 27.1455 36.0415 27.1881C37.1227 27.2307 38.2022 26.721 38.7305 26.4473C39.1784 26.2146 39.6723 26.2096 39.8134 26.2129V26.2162H40.0217V26.2146C40.1563 26.2113 40.6567 26.2146 41.1078 26.4489C41.6378 26.7243 42.719 27.2307 43.7969 27.1897C44.8748 27.1487 46.084 26.385 46.084 26.385L46.2956 26.4276C46.2956 26.4276 45.9576 28.6697 46.7632 29.9415C47.5688 31.21 47.8641 32.7342 47.6114 34.0683C47.5376 34.4846 47.5015 34.7976 47.4818 34.991C45.0635 34.478 42.5762 34.2158 40.0463 34.2158C37.4065 34.2158 34.8356 34.496 32.3648 35.032C32.3434 34.8419 32.3041 34.5108 32.2269 34.0666Z" fill="#060606"/>
<path d="M8.44735 87.7548C8.44735 89.801 7.96001 91.3533 6.98531 92.4117C6.01062 93.4717 4.53545 94.0001 2.56309 94.0001C1.64746 94.0001 0.794196 93.8918 0 93.6752L0.216599 90.1735C0.841782 90.3671 1.46696 90.4623 2.09379 90.4623C2.98316 90.4623 3.62803 90.2408 4.02513 89.7944C4.42223 89.3498 4.62077 88.6343 4.62077 87.6465V68.3708H8.44735V87.7548Z" fill="#060606"/>
<path d="M22.7068 71.9808H18.6275V93.6407H14.8009V71.9808H10.7216V68.3708H22.7068V71.9808Z" fill="#060606"/>
<path d="M33.7878 93.639L30.7554 82.9535H28.9866V93.639H25.16V68.3691H30.6832C32.7524 68.3691 34.3293 68.9172 35.4123 70.0117C36.4953 71.1078 37.0368 72.6896 37.0368 74.7588V76.5638C37.0368 79.2352 36.1343 81.0894 34.3293 82.1232L37.831 93.639H33.7878ZM28.9866 71.9086V79.4173H30.5388C31.4528 79.4173 32.1272 79.1646 32.5604 78.6592C32.9936 78.1538 33.2102 77.3728 33.2102 76.3127V75.0131C33.2102 73.9548 32.9936 73.1721 32.5604 72.6667C32.1272 72.1613 31.4528 71.9086 30.5388 71.9086H28.9866Z" fill="#060606"/>
<path d="M52.8485 93.639H48.9497L48.1194 87.8991H43.8958L43.0655 93.639H39.2389L43.607 68.3691H48.4804L52.8485 93.639ZM45.9535 73.7858L44.4012 84.4352H47.614L46.0618 73.7858H45.9535Z" fill="#060606"/>
<path d="M59.4186 93.639H55.592V68.3691H59.4186V93.639Z" fill="#060606"/>
<path d="M75.9885 93.639H72.2341L67.2162 76.8887H67.144V93.639H63.5341V68.3691H67.7938L72.3063 83.4228H72.3785V68.3691H75.9885V93.639Z" fill="#060606"/>
</svg>
