<svg width="69" height="104" viewBox="0 0 69 104" fill="none" xmlns="http://www.w3.org/2000/svg">
<path d="M69.0002 34.9199C69.0002 67.0666 34.5002 104 34.5002 104C34.5002 104 0.000244141 63.8825 0.000244141 34.9199C0.000244141 15.6344 15.4466 0 34.5002 0C53.5539 0 69.0002 15.6344 69.0002 34.9199Z" fill="#0057FF"/>
<path d="M47.0457 41.6719C49.0426 43.2028 50.706 45.1527 51.927 47.3492C46.7455 46.2831 35.0233 45.7418 24.8707 52.7248C24.8707 52.7248 44.2539 46.7539 58.0002 52.8624L56.9776 50.0533L56.9817 50.0523C55.6739 45.5879 52.9245 41.572 49.237 38.7456C47.1435 37.1413 44.8272 35.9518 42.3699 35.2057C42.1432 34.9621 41.8692 34.4993 41.7957 33.6472C41.6657 32.1336 42.0173 30.9492 42.0032 29.9239C41.9911 28.8975 41.6123 29.2522 41.6385 28.0688C41.6385 28.0688 41.6647 26.9629 40.4557 26.2137C39.2467 25.4636 38.5052 25.3718 38.5052 25.3718C38.5052 25.3718 39.6366 21.1215 39.7021 20.727C40.093 20.7668 41.6667 21.359 42.642 21.3722C43.6172 21.3845 44.1774 21.253 44.5149 21.201C45.8277 21.5435 46.947 21.6485 48.833 21.254C49.5614 21.096 51.1231 21.044 51.1231 21.044C51.1231 21.044 51.1886 21.3468 51.9684 21.3203C52.7482 21.2938 53.8292 21.1103 54.4277 21.096C55.0261 21.0838 55.0654 20.938 55.014 20.9248C54.9616 20.9125 52.4389 20.3458 48.5489 19.9504C46.3244 19.6599 44.3476 19.7526 43.6323 19.6211C42.917 19.4897 42.2017 19.2522 42.2017 19.2522C42.2017 19.2522 41.9417 18.5682 40.8093 18.397C39.6648 18.2788 38.8326 18.3185 38.8326 18.3185C38.8326 18.3185 38.3933 17.9332 37.2397 17.4644L37.4271 16.4889C37.4271 16.4889 37.6226 16.1077 37.7143 15.8957C37.806 15.6858 37.8322 15.3025 37.5712 15.4218C37.5178 15.4462 37.4815 15.4636 37.4574 15.4758C37.4745 15.3249 37.5722 14.427 37.4412 13.9347C37.3002 13.4026 36.5909 13.0122 36.0721 13.001V13H35.9441V13.001C35.4263 13.0133 34.718 13.4026 34.5769 13.9347C34.447 14.427 34.5427 15.3249 34.5608 15.4758C34.5366 15.4636 34.5004 15.4452 34.447 15.4218C34.187 15.3025 34.2132 15.6847 34.3039 15.8957C34.3956 16.1057 34.591 16.4889 34.591 16.4889L34.7784 17.4644C33.6259 17.9332 33.1856 18.3185 33.1856 18.3185C33.1856 18.3185 32.3534 18.2788 31.2089 18.397C30.0774 18.5682 29.8165 19.2522 29.8165 19.2522C29.8165 19.2522 29.1022 19.4886 28.3859 19.6211C27.6705 19.7526 25.6928 19.6609 23.4693 19.9504C19.5803 20.3458 17.0565 20.9105 17.0042 20.9248C16.9518 20.937 16.9921 21.0828 17.5905 21.096C18.189 21.1082 19.268 21.2938 20.0498 21.3203C20.8296 21.3468 20.8951 21.044 20.8951 21.044C20.8951 21.044 22.4567 21.097 23.1852 21.254C25.0702 21.6495 26.1895 21.5445 27.5033 21.201C27.8418 21.254 28.401 21.3845 29.3762 21.3722C30.3515 21.36 31.9252 20.7668 32.3161 20.727C32.3816 21.1225 33.513 25.3718 33.513 25.3718C33.513 25.3718 32.7715 25.4646 31.5625 26.2137C30.3535 26.9639 30.3797 28.0688 30.3797 28.0688C30.4059 29.2532 30.0281 28.8985 30.015 29.9239C30.0029 30.9492 30.3535 32.1336 30.2225 33.6472C30.1439 34.5656 29.8306 35.0304 29.5969 35.2567C22.1646 37.5714 16.7331 43.0071 15.0002 53C15.0002 53 21.415 37.9516 36.0872 37.9516C40.0819 37.9506 43.8711 39.2369 47.0457 41.6719ZM31.2864 34.1864C31.1303 33.3567 31.3126 32.4088 31.8073 31.6199C32.302 30.831 32.0945 29.4346 32.0945 29.4346L32.2244 29.4081C32.2244 29.4081 32.9659 29.8821 33.6289 29.9086C34.2928 29.9351 34.9558 29.6181 35.2802 29.4479C35.5552 29.3031 35.8585 29.3001 35.9451 29.3021V29.3041H36.0731V29.3031C36.1557 29.3011 36.463 29.3031 36.74 29.4489C37.0655 29.6201 37.7294 29.9351 38.3913 29.9096C39.0532 29.8841 39.7958 29.4091 39.7958 29.4091L39.9257 29.4356C39.9257 29.4356 39.7182 30.83 40.2129 31.6209C40.7076 32.4098 40.8889 33.3578 40.7338 34.1874C40.6884 34.4463 40.6662 34.641 40.6542 34.7613C39.1691 34.4423 37.6417 34.2792 36.0882 34.2792C34.4671 34.2792 32.8884 34.4535 31.3711 34.7868C31.358 34.6685 31.3338 34.4626 31.2864 34.1864Z" fill="white"/>
</svg>
