<svg width="76" height="94" viewBox="0 0 76 94" fill="none" xmlns="http://www.w3.org/2000/svg">
<path d="M57.8901 46.1029C61.1419 48.5645 63.8507 51.6998 65.8391 55.2317C57.4012 53.5174 38.3121 52.6471 21.7791 63.8754C21.7791 63.8754 53.3438 54.2746 75.729 64.0966L74.0638 59.5797L74.0703 59.5781C71.9408 52.3996 67.4634 45.9423 61.4586 41.3975C58.0493 38.8179 54.2774 36.9053 50.2758 35.7056C49.9067 35.3139 49.4604 34.5698 49.3406 33.1997C49.129 30.7659 49.7016 28.8614 49.6786 27.2127C49.6589 25.5623 49.042 26.1326 49.0847 24.2298C49.0847 24.2298 49.1273 22.4516 47.1586 21.247C45.1898 20.0407 43.9822 19.8932 43.9822 19.8932C43.9822 19.8932 45.8247 13.0589 45.9313 12.4247C46.5679 12.4886 49.1306 13.4408 50.7188 13.4621C52.307 13.4818 53.2192 13.2704 53.7688 13.1868C55.9066 13.7374 57.7293 13.9063 60.8007 13.272C61.9869 13.018 64.5299 12.9344 64.5299 12.9344C64.5299 12.9344 64.6365 13.4211 65.9064 13.3785C67.1763 13.3359 68.9367 13.0409 69.9113 13.018C70.8858 12.9983 70.9498 12.7639 70.8661 12.7426C70.7808 12.723 66.6726 11.8117 60.338 11.1758C56.7154 10.7087 53.4964 10.8579 52.3316 10.6464C51.1667 10.435 50.0018 10.0532 50.0018 10.0532C50.0018 10.0532 49.5785 8.95343 47.7344 8.67809C45.8706 8.48798 44.5154 8.5519 44.5154 8.5519C44.5154 8.5519 43.8001 7.93238 41.9216 7.17848L42.2267 5.61003C42.2267 5.61003 42.545 4.99707 42.6943 4.65618C42.8436 4.31856 42.8863 3.70233 42.4613 3.89408C42.3744 3.93341 42.3153 3.96128 42.2759 3.98094C42.3038 3.73838 42.463 2.29449 42.2497 1.50289C42.02 0.647374 40.865 0.0196671 40.02 0.00163892V0H39.8117V0.00163892C38.9684 0.021306 37.815 0.647374 37.5853 1.50289C37.3736 2.29449 37.5295 3.73838 37.559 3.98094C37.5197 3.96128 37.4606 3.93177 37.3736 3.89408C36.9503 3.70233 36.993 4.31692 37.1407 4.65618C37.29 4.9938 37.6083 5.61003 37.6083 5.61003L37.9134 7.17848C36.0365 7.93238 35.3195 8.5519 35.3195 8.5519C35.3195 8.5519 33.9643 8.48798 32.1005 8.67809C30.2581 8.95343 29.8332 10.0532 29.8332 10.0532C29.8332 10.0532 28.6699 10.4334 27.5034 10.6464C26.3385 10.8579 23.1179 10.7104 19.497 11.1758C13.164 11.8117 9.05416 12.7197 8.96884 12.7426C8.88353 12.7623 8.94916 12.9967 9.92371 13.018C10.8983 13.0376 12.6554 13.3359 13.9286 13.3785C15.1984 13.4211 15.3051 12.9344 15.3051 12.9344C15.3051 12.9344 17.8481 13.0196 19.0343 13.272C22.104 13.9079 23.9268 13.7391 26.0662 13.1868C26.6175 13.272 27.528 13.4818 29.1162 13.4621C30.7043 13.4424 33.2671 12.4886 33.9036 12.4247C34.0103 13.0606 35.8527 19.8932 35.8527 19.8932C35.8527 19.8932 34.6452 20.0424 32.6764 21.247C30.7076 22.4532 30.7503 24.2298 30.7503 24.2298C30.7929 26.1343 30.1777 25.5639 30.1564 27.2127C30.1367 28.8614 30.7076 30.7659 30.4943 33.1997C30.3664 34.6763 29.8561 35.4237 29.4755 35.7875C17.3723 39.5095 8.52751 48.2499 5.70557 64.3179C5.70557 64.3179 16.1517 40.1208 40.0446 40.1208C46.5499 40.1192 52.7204 42.1875 57.8901 46.1029ZM32.2269 34.0666C31.9726 32.7326 32.2695 31.2084 33.0751 29.9398C33.8807 28.6713 33.5427 26.426 33.5427 26.426L33.7543 26.3834C33.7543 26.3834 34.9619 27.1455 36.0414 27.1881C37.1226 27.2307 38.2022 26.721 38.7305 26.4473C39.1784 26.2146 39.6722 26.2096 39.8133 26.2129V26.2162H40.0217V26.2146C40.1562 26.2113 40.6566 26.2146 41.1078 26.4489C41.6377 26.7243 42.7189 27.2307 43.7968 27.1897C44.8747 27.1487 46.0839 26.385 46.0839 26.385L46.2956 26.4276C46.2956 26.4276 45.9576 28.6697 46.7631 29.9415C47.5687 31.21 47.864 32.7342 47.6114 34.0683C47.5375 34.4846 47.5014 34.7976 47.4818 34.991C45.0634 34.478 42.5762 34.2158 40.0463 34.2158C37.4065 34.2158 34.8355 34.496 32.3647 35.032C32.3434 34.8419 32.304 34.5108 32.2269 34.0666Z" fill="#060606"/>
<path d="M8.44735 87.7548C8.44735 89.801 7.96001 91.3533 6.98531 92.4117C6.01062 93.4717 4.53545 94.0001 2.56309 94.0001C1.64746 94.0001 0.794196 93.8918 0 93.6752L0.216599 90.1735C0.841782 90.3671 1.46696 90.4623 2.09379 90.4623C2.98316 90.4623 3.62803 90.2408 4.02513 89.7944C4.42223 89.3498 4.62077 88.6343 4.62077 87.6465V68.3708H8.44735V87.7548Z" fill="#060606"/>
<path d="M22.7068 71.9808H18.6275V93.6407H14.801V71.9808H10.7217V68.3708H22.7068V71.9808Z" fill="#060606"/>
<path d="M33.7878 93.639L30.7554 82.9535H28.9865V93.639H25.1599V68.3691H30.6832C32.7524 68.3691 34.3293 68.9172 35.4123 70.0117C36.4952 71.1078 37.0367 72.6896 37.0367 74.7588V76.5638C37.0367 79.2352 36.1343 81.0894 34.3293 82.1232L37.8309 93.639H33.7878ZM28.9865 71.9086V79.4173H30.5388C31.4528 79.4173 32.1272 79.1646 32.5604 78.6592C32.9936 78.1538 33.2102 77.3728 33.2102 76.3127V75.0131C33.2102 73.9548 32.9936 73.1721 32.5604 72.6667C32.1272 72.1613 31.4528 71.9086 30.5388 71.9086H28.9865Z" fill="#060606"/>
<path d="M52.8484 93.639H48.9496L48.1193 87.8991H43.8956L43.0653 93.639H39.2388L43.6068 68.3691H48.4803L52.8484 93.639ZM45.9533 73.7858L44.401 84.4352H47.6139L46.0616 73.7858H45.9533Z" fill="#060606"/>
<path d="M59.4186 93.639H55.592V68.3691H59.4186V93.639Z" fill="#060606"/>
<path d="M75.9886 93.639H72.2342L67.2164 76.8887H67.1442V93.639H63.5342V68.3691H67.794L72.3064 83.4228H72.3786V68.3691H75.9886V93.639Z" fill="#060606"/>
</svg>
