<svg width="84" height="80" viewBox="0 0 84 80" fill="none" xmlns="http://www.w3.org/2000/svg">
<path d="M28.1329 80C3.26899 73.4884 -13 55.814 -13 32.5581C-13 14.2636 -2.25633 0 12.1709 0C21.6867 0 27.826 5.89148 27.826 14.5736C27.826 20.4651 25.3703 24.4961 20.4589 26.3566H6.64557C2.04114 27.907 -0.41456 32.8682 -0.41456 40.6202C-0.41456 55.1938 9.40823 67.907 28.7468 78.4496L28.1329 80ZM83.3861 80C58.5222 73.4884 42.2532 55.814 42.2532 32.5581C42.2532 14.2636 52.9968 0 67.424 0C76.9399 0 83.0791 5.89148 83.0791 14.5736C83.0791 20.4651 80.6234 24.4961 75.712 26.3566H61.8987C57.2943 27.907 54.8386 32.8682 54.8386 40.6202C54.8386 55.1938 64.6614 67.907 84 78.4496L83.3861 80Z" fill="#1F1F1F"/>
</svg>
