<svg width="230" height="188" viewBox="0 0 230 188" fill="none" xmlns="http://www.w3.org/2000/svg">
<path d="M97.5316 0C38.5759 15.3023 0 56.8372 0 111.488C0 154.481 25.4747 188 59.6835 188C82.2468 188 96.8038 174.155 96.8038 153.752C96.8038 139.907 90.981 130.434 79.3354 126.062H46.5823C35.6646 122.419 29.8418 110.76 29.8418 92.5426C29.8418 58.2946 53.1329 28.4186 98.9873 3.64341L97.5316 0ZM228.544 0C169.589 15.3023 131.013 56.8372 131.013 111.488C131.013 154.481 156.487 188 190.696 188C213.259 188 227.816 174.155 227.816 153.752C227.816 139.907 221.994 130.434 210.348 126.062H177.595C166.677 122.419 160.854 110.76 160.854 92.5426C160.854 58.2946 184.146 28.4186 230 3.64341L228.544 0Z" fill="#1F1F1F"/>
</svg>
